<?xml version="1.0" encoding="utf-8"?>
<!-- Generator: Adobe Illustrator 16.0.0, SVG Export Plug-In . SVG Version: 6.00 Build 0)  -->
<!DOCTYPE svg PUBLIC "-//W3C//DTD SVG 1.1//EN" "http://www.w3.org/Graphics/SVG/1.1/DTD/svg11.dtd">
<svg version="1.1" id="Layer_1" xmlns="http://www.w3.org/2000/svg" xmlns:xlink="http://www.w3.org/1999/xlink" x="0px" y="0px"
	 width="24px" height="24px" viewBox="0 0 24 24" enable-background="new 0 0 24 24" xml:space="preserve">
<path  d="M14.813,16.466c-0.084-0.92-0.051-1.562-0.051-2.4c0.415-0.219,1.161-1.61,1.287-2.787
	c0.327-0.027,0.844-0.346,0.994-1.607c0.081-0.677-0.242-1.058-0.439-1.177c0.533-1.603,1.641-6.558-2.047-7.07
	c-0.377-0.666-1.349-1.002-2.611-1.002C6.896,0.515,6.288,4.235,7.395,8.494c-0.195,0.12-0.521,0.5-0.438,1.177
	c0.151,1.262,0.667,1.58,0.995,1.607c0.125,1.176,0.9,2.568,1.318,2.787c0,0.84,0.03,1.48-0.053,2.4
	c-0.999,2.686-7.74,1.932-8.051,7.112h21.668C22.523,18.397,15.813,19.151,14.813,16.466z" fill="#013A3A"/>
</svg>
