<?xml version="1.0" encoding="utf-8"?>
<!-- Generator: Adobe Illustrator 16.0.0, SVG Export Plug-In . SVG Version: 6.00 Build 0)  -->
<!DOCTYPE svg PUBLIC "-//W3C//DTD SVG 1.1//EN" "http://www.w3.org/Graphics/SVG/1.1/DTD/svg11.dtd">
<svg version="1.1" id="Layer_1" xmlns="http://www.w3.org/2000/svg" xmlns:xlink="http://www.w3.org/1999/xlink" x="0px" y="0px"
	 width="24px" height="24px" viewBox="0 0 24 24" enable-background="new 0 0 24 24" xml:space="preserve">
<path d="M14.813,16.551c-0.016-0.162-0.024-0.426-0.035-0.697c2.479-0.254,4.217-0.85,4.217-1.541c-0.008,0-0.008-0.029-0.008-0.039
	c-1.852-1.67,1.606-13.531-4.83-13.292c-0.404-0.342-1.111-0.646-2.127-0.646c-8.719,0.66-4.863,11.861-6.85,13.976
	c-0.002,0-0.003,0-0.004,0c0,0.002,0,0.002,0,0.004v0.002c0,0,0,0,0.001,0c0.009,0.678,1.687,1.26,4.093,1.52
	c-0.006,0.168-0.021,0.371-0.053,0.713c-0.999,2.689-7.74,1.936-8.051,7.113h21.668C22.523,18.484,15.813,19.238,14.813,16.551z" fill="#013a3a"/>
</svg>
